<svg xmlns="http://www.w3.org/2000/svg" viewBox="0 0 58.996 58.996" width="512" height="512"><path d="M51.613.891A1.38 1.38 0 0 0 50.315 0H29.672a1.39 1.39 0 0 0-1.365 1.148c-.077.426-.571 2.087-3.661 6.034l-.116.142a73.926 73.926 0 0 1-1.505 1.837l-.001-.001-.827.958a126.494 126.494 0 0 1-4.095 4.497l-.573.602.002.002a207.126 207.126 0 0 1-3.887 3.926c-.195.166-4.772 4.164-3.893 13.44.042.447.08.883.113 1.31l-.003.002.038.535c.14 1.995.18 3.808.122 5.497l-.007.168c-.02.533-.049 1.057-.089 1.567-.24 3.038-1.06 6.582-1.719 9.429-.494 2.133-.883 3.817-.915 4.781-.028.877.306 2.43 2.864 2.97.485.103.976.152 1.465.152a7.44 7.44 0 0 0 2.764-.547c1.031-.326 2.256-.994 3.47-2.679l.026-.031c1.343-1.819 3.168-4.981 4.91-10.2l.002-.005c.213-.639.425-1.309.635-2.012l.091-.311c.188-.64.375-1.301.558-1.995l.02-.07c1.248-4.735 5.478-8.128 10.373-8.251 1.542-.034 2.979-.488 4.152-1.269.524-.349 1-.755 1.401-1.231.201-.238.394-.502.573-.788l.035-.057a5.69 5.69 0 0 0 .867-2.875c.02-.878-.16-1.861-.638-2.947-.191-.434-.43-.885-.723-1.353a23.178 23.178 0 0 1-.472-.791l-.107-.194a17.691 17.691 0 0 1-.329-.615l-.094-.189a17.036 17.036 0 0 1-.292-.618l-.076-.177c-.088-.204-.17-.407-.246-.607-.738-1.951-.997-3.995-.156-5.785l.027-.056a5.64 5.64 0 0 1 .94-1.361l.104-.107c.037-.038.078-.076.117-.114.076-.074.155-.148.237-.22.065-.058.127-.114.204-.179l.107-.091c.229-.182.466-.355.722-.518a30.883 30.883 0 0 0 .871-.579l.083-.056.034-.025c.308-.214.625-.439.955-.682l.03-.02.201-.151a46.235 46.235 0 0 0 1.098-.834l.497-.388.301-.235L47.147 6h-.061a149.978 149.978 0 0 0 4.162-3.587c.429-.387.572-.984.365-1.522zM20.227 15.279c.452-.48.88-.942 1.292-1.392l.047-.051c.461-.504.899-.989 1.313-1.456l6.519 9.034a70.056 70.056 0 0 0-3.606 1.839l-5.671-7.859.106-.115zm16.065 3.481a41.818 41.818 0 0 0-5.033 1.814l-4.81-6.666h9.636c-.356 1.462-.289 3.092.207 4.852zm-21.3 1.861a210.066 210.066 0 0 0 3.725-3.757l5.32 7.373c-4.416 2.548-8.679 5.506-12.289 8.222l-.005-.061c-.776-8.173 3.036-11.589 3.249-11.777zm24.284 7.152a3.903 3.903 0 0 1-.26.563c-.022.04-.036.082-.06.122-.13.222-.283.438-.461.648-.93 1.103-2.413 1.755-4.161 1.793l-.013.001-.184.005c-5.592.175-10.508 4.146-11.954 9.658l-.055.202a71.208 71.208 0 0 1-.52 1.859l-.086.295c-1.452 4.862-3.215 8.772-5.254 11.639a6.405 6.405 0 0 1-.55.649 6.035 6.035 0 0 1-1.985 1.358c-.075.023-.149.046-.223.065 1.668-2.771 3.788-7.343 5.699-14.628 1.929-7.354 8.602-12.855 15.862-13.082l.37-.011c1.255-.028 2.653-.188 3.628-1.118l.215-.044c-.004.008-.005.018-.008.026zm-.833-4.334c.173.276.325.547.456.813.243.495.405.97.499 1.429l-.963.196a1.247 1.247 0 0 0-.676.391c-.375.421-1.082.612-2.37.641l-.379.012c-8.26.258-15.554 6.251-17.737 14.573-2.199 8.382-4.641 12.991-6.304 15.384-.013.019-.017.041-.029.061-.124-.017-.249-.023-.372-.049-1.301-.274-1.285-.764-1.279-.948.025-.768.414-2.448.864-4.395.674-2.912 1.512-6.535 1.764-9.722a42.509 42.509 0 0 0 .097-1.733 52.168 52.168 0 0 0-.083-5.264c3.53-2.699 8.781-6.454 14.332-9.538.799-.443 1.592-.87 2.369-1.265l.26-.129a62.125 62.125 0 0 1 2.255-1.079c.214-.097.429-.2.643-.294l.102-.046c1.716-.747 3.416-1.377 5.059-1.838.041.094.095.19.137.284.114.251.239.505.368.761.08.157.155.312.24.47.231.425.476.852.747 1.285zm2.212-14.976c-.24.167-.468.317-.69.461-.068.044-.143.097-.209.139-.015.009-.027.02-.041.03-.354.226-.677.468-.983.719l-.076.063c-.029.024-.057.051-.086.076a8.468 8.468 0 0 0-.598.564l-.008.008-.098.102c-.013.015-.024.03-.038.045a7.896 7.896 0 0 0-.454.542l-.074.101a7.288 7.288 0 0 0-.384.57c-.005.009-.012.017-.018.026H25.006l-.773-1.072a77.293 77.293 0 0 0 1.858-2.26L26.559 8h14.744c-.216.158-.43.311-.648.463zM43.921 6h-15.94c1.34-1.96 1.929-3.23 2.169-4h18.548a146.53 146.53 0 0 1-4.777 4z" fill="#F85A16"/></svg>