<svg xmlns="http://www.w3.org/2000/svg" viewBox="0 0 70.529 70.529" width="512" height="512"><path d="M66.421 29.17h-1.607v-4.652a4.255 4.255 0 0 0-4.25-4.25h-2.861v-1.557a4.255 4.255 0 0 0-4.25-4.25h-3.155a4.255 4.255 0 0 0-4.25 4.25v10.442H24.48V18.711a4.255 4.255 0 0 0-4.25-4.25h-3.155a4.255 4.255 0 0 0-4.25 4.25v2.894h-2.86a4.255 4.255 0 0 0-4.25 4.25v3.883H4.107C1.843 29.737 0 31.644 0 33.987v3.122c0 2.343 1.843 4.25 4.107 4.25h1.607v4.652a4.255 4.255 0 0 0 4.25 4.25h2.86v1.557a4.255 4.255 0 0 0 4.25 4.25h3.155a4.255 4.255 0 0 0 4.25-4.25v-11.01h21.568v11.01a4.255 4.255 0 0 0 4.25 4.25h3.155a4.255 4.255 0 0 0 4.25-4.25v-2.894h2.861a4.255 4.255 0 0 0 4.25-4.25v-3.882h1.607c2.265 0 4.107-1.907 4.107-4.25V33.42c.002-2.343-1.841-4.25-4.106-4.25zM4.107 38.859c-.886 0-1.607-.785-1.607-1.75v-3.122c0-.965.721-1.75 1.607-1.75h1.607v6.622H4.107zm5.858 8.902c-.965 0-1.75-.785-1.75-1.75V25.854c0-.965.785-1.75 1.75-1.75h2.86V47.76h-2.86zm12.015 4.057c0 .965-.785 1.75-1.75 1.75h-3.155c-.965 0-1.75-.785-1.75-1.75V18.711c0-.965.785-1.75 1.75-1.75h3.155c.965 0 1.75.785 1.75 1.75v33.107zm2.5-13.51v-6.655h21.568v6.655H24.48zm30.723 13.51c0 .965-.785 1.75-1.75 1.75h-3.155c-.965 0-1.75-.785-1.75-1.75V18.711c0-.965.785-1.75 1.75-1.75h3.155c.965 0 1.75.785 1.75 1.75v33.107zm7.111-7.144c0 .965-.785 1.75-1.75 1.75h-2.861V22.768h2.861c.965 0 1.75.785 1.75 1.75v20.156zm5.715-8.132c0 .965-.721 1.75-1.607 1.75h-1.607V31.67h1.607c.886 0 1.607.785 1.607 1.75v3.122z" fill="#F85A16"/></svg>