<svg xmlns="http://www.w3.org/2000/svg" viewBox="0 0 442.548 442.548" width="512" height="512"><path d="M420.953 220.88l-8.3-16.72a5.993 5.993 0 0 0-3.461-3.019 5.989 5.989 0 0 0-4.582.313l-104.49 51.89a6 6 0 0 0-2.705 8.042l8.3 16.72a6 6 0 0 0 8.042 2.706l31.813-15.796v86.302h-52.908a26.178 26.178 0 0 0 2.124-4.041c2.652-6.407 2.652-13.465-.002-19.875l-35.698-86.198-2.162-4.993a65.633 65.633 0 0 0 4.184-16.034h14.342c14.319 0 25.97-11.65 25.97-25.97s-11.65-25.97-25.97-25.97h-13.77v-4.026c0-16.227-7.552-30.715-19.318-40.161 27.355-6.851 47.678-31.634 47.678-61.083C290.039 28.248 261.791 0 227.07 0c-34.721 0-62.969 28.248-62.969 62.969 0 20.213 9.584 38.219 24.434 49.749h-2.373c-15.023 0-29.229 5.77-39.996 16.246l-34.637 33.695c-4.904 4.905-7.604 11.427-7.604 18.362 0 6.937 2.701 13.458 7.605 18.361l41.38 41.381a26.263 26.263 0 0 0 4.824 3.813l-20.267 20.267-26.637-26.637c-9.961-9.96-26.28-10.402-36.38-.991-5.215 4.851-8.157 11.438-8.285 18.547-.129 7.112 2.57 13.799 7.6 18.829l45.34 45.339c4.905 4.906 11.427 7.608 18.362 7.608 6.937 0 13.458-2.702 18.362-7.607l42.172-42.171a65.841 65.841 0 0 0 18.426-3.364l30.367 72.878a26.275 26.275 0 0 0 2.126 4.045H51.968c-17.094 0-31 13.906-31 31 0 8.27 3.222 16.053 9.078 21.923a30.912 30.912 0 0 0 10.622 6.954v14.353c0 9.374 7.626 17 17 17a16.9 16.9 0 0 0 12.033-4.987 16.926 16.926 0 0 0 4.967-12.013V413.32h270.9v12.227c0 9.374 7.626 17 17 17s17-7.626 17-17v-14.474c11.627-4.635 19.399-15.851 19.399-28.753 0-8.271-3.222-16.055-9.077-21.923a30.881 30.881 0 0 0-10.322-6.813V248.128l38.679-19.206a6.001 6.001 0 0 0 2.706-8.042zm-107.159 46.515l-2.964-5.971 34.738-17.251v7.446l-31.774 15.776zm-38.345-87.157c7.703 0 13.97 6.267 13.97 13.97s-6.267 13.97-13.97 13.97h-13.77v-27.939h13.77zM176.101 62.969C176.101 34.864 198.965 12 227.07 12s50.97 22.864 50.97 50.969-22.865 50.97-50.97 50.97-50.969-22.866-50.969-50.97zm19.367 202.839a5.996 5.996 0 0 0-4.242 1.758l-43.881 43.88c-2.639 2.64-6.146 4.093-9.877 4.093s-7.237-1.453-9.877-4.094l-45.341-45.34a13.852 13.852 0 0 1-4.086-10.127c.068-3.822 1.653-7.365 4.465-9.98 2.585-2.409 5.944-3.602 9.342-3.602 3.738 0 7.523 1.443 10.375 4.294l30.88 30.88a5.997 5.997 0 0 0 8.484 0s28.839-28.891 29.052-29.206c.322.006.646.006.975 0 7.108-.126 13.697-3.066 18.553-8.279 9.411-10.104 8.966-26.426-.993-36.383l-22.68-22.681 18.223-18.224a5.997 5.997 0 0 0 0-8.484 5.997 5.997 0 0 0-8.484 0l-22.466 22.466a5.997 5.997 0 0 0 0 8.484l26.923 26.924c5.442 5.441 5.755 14.288.696 19.719-2.615 2.809-6.161 4.392-9.985 4.46-1.289.029-6.104-.064-10.128-4.088l-41.38-41.38c-2.638-2.638-4.09-6.146-4.09-9.877s1.453-7.239 4.031-9.819l34.577-33.637c8.516-8.285 19.748-12.848 31.629-12.848h24.022c21.777 0 39.494 17.717 39.494 39.494v47.386c0 29.892-24.319 54.211-54.211 54.211zm69.988 84.444a13.897 13.897 0 0 1-7.58-7.582l-30.464-73.111a66.697 66.697 0 0 0 22.186-19.899l34.097 82.334a13.883 13.883 0 0 1 .002 10.692 13.88 13.88 0 0 1-7.57 7.561 13.89 13.89 0 0 1-5.323 1.071h-.02a13.92 13.92 0 0 1-5.328-1.066zM62.668 425.548a4.995 4.995 0 0 1-5 5c-2.757 0-5-2.243-5-5v-12.229h10v12.229zm-10.7-24.23a18.877 18.877 0 0 1-13.432-5.558c-3.591-3.6-5.568-8.373-5.568-13.442 0-10.477 8.523-19 19-19h293.601v38H51.968zm315.601 24.227c0 2.757-2.243 5-5 5s-5-2.243-5-5V242.034c0-2.757 2.243-5 5-5s5 2.243 5 5v183.511zm13.832-56.67c3.59 3.599 5.567 8.373 5.567 13.443 0 5.977-2.874 11.487-7.399 15.013v-30.059a19.16 19.16 0 0 1 1.832 1.603zM378.219 235.4a17.055 17.055 0 0 0-3.817-5.546l30.17-14.983 2.964 5.971-29.317 14.558z" fill="#F85A16"/></svg>