<svg xmlns="http://www.w3.org/2000/svg" viewBox="0 0 356.603 356.603" width="512" height="512"><path d="M356.6 153.891c-.501-17.863-9.598-31.177-25.734-37.869-9.497-47.639-42.398-73.809-93.023-73.809-23.973 0-43.964 5.819-59.542 17.275-15.415-11.303-35.436-17.279-59.547-17.279-50.619 0-83.519 26.171-93.018 73.811C9.595 122.714.497 136.029 0 153.891c0 0-.002 3.522.028 4.169 1.234 27.983 15.887 53.71 40.2 70.584 7.05 4.893 15.296 9.08 24.563 12.476v51.619c0 11.938 9.712 21.65 21.651 21.65h64.189c11.938 0 21.65-9.712 21.65-21.65v-55.265a79.411 79.411 0 0 0 6.032-4.023 79.465 79.465 0 0 0 6.01 4.02v55.264c0 11.943 9.712 21.66 21.65 21.66h64.19c11.938 0 21.65-9.716 21.65-21.66v-51.617c9.261-3.395 17.505-7.581 24.556-12.474 24.319-16.878 38.974-42.604 40.21-70.657.021-.646.023-3.913.023-3.913l-.002-.183zm-232.239 91.014h-10.333v-15.167a5.173 5.173 0 0 1 5.167-5.167 5.173 5.173 0 0 1 5.167 5.167v15.167zm0 13v11h-10.333v-11h10.333zm0 24v19.484h-10.333v-19.484h10.333zm38.345-53.937l-3.424 1.839v62.932a8.65 8.65 0 0 1-8.65 8.65h-13.269v-19.484h7.227c3.559 0 6.663-2.743 6.77-6.3a6.5 6.5 0 0 0-6.497-6.7h-7.5v-11h7.227c3.559 0 6.663-2.743 6.77-6.3a6.5 6.5 0 0 0-6.497-6.7h-7.5v-14.72c0-9.838-7.635-18.228-17.466-18.6-10.335-.391-18.868 7.903-18.868 18.153v15.167h-7.227c-3.559 0-6.663 2.743-6.77 6.3a6.5 6.5 0 0 0 6.497 6.7h7.5v11H93.8c-3.559 0-6.663 2.743-6.77 6.3a6.5 6.5 0 0 0 6.497 6.7h7.5v19.484H86.442a8.65 8.65 0 0 1-8.651-8.651v-60.952l-4.475-1.467c-9.906-3.249-18.545-7.405-25.676-12.354-20.951-14.54-33.571-36.583-34.625-60.479a178.26 178.26 0 0 1-.018-3.316c.385-12.931 6.601-21.826 18.492-26.452 4.446-1.73 12.702-2.477 17.339-2.477 16.373 0 35.89 4.702 35.89 27.1s-19.517 27.1-35.89 27.1c-2.324 0-4.616-.102-6.816-.302-3.715-.339-7.175 2.497-7.31 6.225a6.5 6.5 0 0 0 5.886 6.699c2.667.251 5.439.379 8.24.379 18.346 0 32.254-5.389 40.461-15.107 1.405.243 9.482 1.55 20.424 1.55 15.515 0 36.755-2.634 52.768-14.676a54.933 54.933 0 0 0 3.495-2.882l11.529 9.992a6.476 6.476 0 0 0 4.254 1.588 6.484 6.484 0 0 0 5.049-2.403c2.244-2.758 1.693-6.858-.993-9.187l-11.248-9.748c5.245-7.743 8.475-17.005 9.63-27.708.384-3.556-2.058-6.948-5.605-7.402a6.498 6.498 0 0 0-7.294 5.772c-1.452 13.917-6.881 24.241-16.596 31.562-18.629 14.038-47.705 12.516-58.796 11.311 1.193-3.895 1.814-8.156 1.814-12.762 0-25.109-18.277-40.1-48.89-40.1-3.125 0-6.124.16-8.996.461 9.648-37.657 36.749-57.492 78.921-57.492 27.188 0 48.118 8.155 62.209 24.239 13.696 15.633 20.64 38.182 20.64 67.02-.001 27.647-6.749 64.229-38.898 81.498zm180.883-70.481c-1.053 23.889-13.676 45.932-34.632 60.476-7.125 4.944-15.752 9.096-25.639 12.343-1.13.33-11.319 3.221-25.816 4.724a6.501 6.501 0 1 0 1.341 12.931 186.243 186.243 0 0 0 19.97-3.158v47.931c0 4.775-3.88 8.66-8.65 8.66h-64.19c-4.77 0-8.65-3.885-8.65-8.66V242.87c6.763 2.095 13.89 3.67 21.307 4.675a6.502 6.502 0 0 0 1.746-12.882c-9.557-1.295-18.556-3.606-26.763-6.86a67.422 67.422 0 0 1-5.22-3.157c17.227-17.922 26.21-44.475 26.21-78.178 0-33.892-9.161-60.368-26.244-78.169 12.991-8.682 29.591-13.086 49.484-13.086 45.36 0 73.296 22.932 80.82 66.314 1.024 7.896 1.736 24.192-7.419 35.012a6.5 6.5 0 0 0 9.923 8.398c8.665-10.24 10.895-23.218 10.963-33.531 7.313 5.065 11.17 12.681 11.473 22.764 0 .505 0 2.846-.014 3.317z" fill="#F85A16"/></svg>