<svg xmlns="http://www.w3.org/2000/svg" viewBox="0 0 487.258 487.258" width="512" height="512"><g fill="#F85A16"><path d="M483.008 131.311H149.554v-7.476c0-41.233-33.544-74.778-74.775-74.779-41.232 0-74.777 33.546-74.777 74.779L0 363.369l.001.027-.001.027c0 41.233 33.546 74.779 74.778 74.779h408.229a4.249 4.249 0 0 0 4.25-4.25V135.561a4.248 4.248 0 0 0-4.249-4.25zM8.501 123.834c0-36.547 29.731-66.279 66.277-66.279 36.544.001 66.275 29.733 66.275 66.279V328.86c-12.502-23.874-37.509-40.212-66.275-40.212S21.002 304.986 8.5 328.86l.001-205.026zm66.276 305.813c-36.537 0-66.262-29.718-66.276-66.251.015-36.531 29.74-66.248 66.277-66.248 36.535 0 66.26 29.717 66.274 66.248-.014 36.534-29.739 66.251-66.275 66.251zm403.981.056H109.341c23.875-12.502 40.213-37.512 40.213-66.279l-.001-.027.001-.027V190.232h257.083c2.348 0 4.25-1.902 4.25-4.25s-1.902-4.25-4.25-4.25H149.554V139.81h329.204v289.893z"/><path d="M74.778 312.162c-28.268 0-51.265 22.996-51.265 51.262 0 28.267 22.997 51.264 51.265 51.264 28.266 0 51.262-22.997 51.262-51.264 0-28.266-22.996-51.262-51.262-51.262zm0 94.026c-23.58 0-42.765-19.184-42.765-42.764 0-23.579 19.185-42.762 42.765-42.762 23.579 0 42.762 19.183 42.762 42.762 0 23.58-19.183 42.764-42.762 42.764z"/><path d="M74.778 336.077c-15.08 0-27.349 12.268-27.349 27.347 0 15.081 12.269 27.35 27.349 27.35 15.079 0 27.347-12.268 27.347-27.35 0-15.079-12.268-27.347-27.347-27.347zm0 46.196c-10.394 0-18.849-8.456-18.849-18.85 0-10.393 8.455-18.847 18.849-18.847 10.393 0 18.847 8.454 18.847 18.847 0 10.394-8.454 18.85-18.847 18.85zm284.631 21.092h4.328c20.947 0 40.641-8.154 55.444-22.958 18.555-18.554 26.574-45.019 21.452-70.792a4.25 4.25 0 0 0-3.34-3.34 78.826 78.826 0 0 0-15.344-1.51c-9.632 0-19.321 1.817-28.3 5.274-5.67-15.223-16.017-28.525-29.957-37.843a4.251 4.251 0 0 0-4.723 0c-13.891 9.284-24.215 22.525-29.898 37.68-8.898-3.387-18.253-5.111-27.879-5.111a78.89 78.89 0 0 0-15.336 1.507 4.253 4.253 0 0 0-3.341 3.341c-5.122 25.774 2.898 52.24 21.454 70.797 14.801 14.803 34.489 22.955 55.438 22.955h.002m1.923-122.452c12.406 9.044 21.337 21.746 25.712 36.087.228.75.442 1.503.645 2.259.061.228.117.456.176.684.142.546.276 1.095.404 1.643.061.261.119.523.177.784.121.552.234 1.105.343 1.659.045.23.092.46.135.69.144.779.277 1.56.394 2.344.004.021.006.043.009.064.113.76.21 1.522.298 2.286.028.244.052.49.077.734a66.134 66.134 0 0 1 .214 2.484c.038.555.068 1.109.093 1.664.011.248.024.495.033.743.027.794.044 1.589.044 2.386 0 .716-.012 1.43-.033 2.143-.007.234-.021.467-.031.7-.02.479-.038.959-.067 1.437-.016.268-.04.533-.059.8-.032.442-.063.885-.103 1.325-.025.28-.059.56-.088.84-.044.425-.086.85-.139 1.273-.034.284-.076.568-.114.853-.056.416-.111.832-.175 1.246-.043.286-.094.57-.141.855-.068.41-.136.821-.211 1.229-.053.283-.109.564-.165.847-.081.409-.162.819-.25 1.227-.059.276-.124.552-.186.827-.094.41-.189.82-.29 1.229-.066.27-.137.538-.207.807-.106.411-.216.821-.33 1.23-.073.264-.151.527-.228.791a69.096 69.096 0 0 1-.617 1.996 76.747 76.747 0 0 1-.676 1.977 69.565 69.565 0 0 1-1.229 3.179c-.098.235-.196.471-.296.705-.176.41-.357.819-.54 1.226-.103.227-.204.452-.309.677-.19.412-.388.821-.586 1.229-.107.217-.211.434-.319.65a64.79 64.79 0 0 1-.633 1.229c-.109.207-.217.415-.328.622-.223.413-.451.822-.683 1.23-.111.197-.221.396-.334.591-.24.416-.487.828-.737 1.24-.111.184-.221.368-.334.551-.26.422-.528.839-.798 1.255-.108.168-.216.338-.326.505-.284.43-.575.854-.868 1.277-.104.15-.205.302-.31.451-.315.445-.637.886-.961 1.324-.091.123-.178.246-.27.368-.363.484-.735.963-1.111 1.439-.058.071-.112.146-.17.218a69.982 69.982 0 0 1-4.199 4.795l-.098.099c-.452.47-.911.934-1.377 1.392-.136.133-.275.262-.412.393-.368.355-.736.71-1.113 1.058-.182.167-.367.331-.551.496-.338.306-.676.612-1.02.911-.212.186-.43.365-.645.548-.322.273-.643.548-.972.816-.237.194-.479.384-.72.575-.313.249-.624.498-.941.742-.257.198-.519.392-.779.586-.224.167-.448.333-.673.498-.2-.146-.398-.293-.597-.44-.29-.217-.581-.432-.867-.652-.289-.223-.574-.45-.859-.677-.267-.212-.535-.423-.798-.638-.304-.248-.601-.502-.899-.755-.237-.2-.477-.399-.711-.604-.323-.281-.641-.569-.958-.855-.204-.184-.41-.364-.611-.55a77.39 77.39 0 0 1-1.06-1.007c-.153-.148-.31-.292-.461-.44a70.21 70.21 0 0 1-1.274-1.287c-.066-.068-.136-.136-.201-.204a69.726 69.726 0 0 1-4.2-4.795c-.042-.052-.081-.104-.122-.157a61.92 61.92 0 0 1-1.161-1.501c-.079-.105-.154-.212-.232-.317a68.105 68.105 0 0 1-1-1.378c-.095-.134-.186-.271-.28-.406a72.792 72.792 0 0 1-.896-1.319c-.105-.159-.207-.32-.312-.48-.274-.424-.548-.85-.813-1.278-.109-.178-.216-.357-.324-.535a75.565 75.565 0 0 1-.747-1.257c-.11-.19-.217-.383-.324-.574a72.052 72.052 0 0 1-.692-1.248c-.109-.203-.215-.407-.322-.611-.217-.41-.43-.822-.638-1.237-.107-.215-.213-.433-.318-.648a65.713 65.713 0 0 1-1.435-3.132c-.1-.235-.199-.472-.298-.708a76.058 76.058 0 0 1-.776-1.954 66.006 66.006 0 0 1-1.127-3.197c-.084-.259-.168-.518-.249-.776a63.902 63.902 0 0 1-.369-1.224c-.077-.265-.155-.529-.229-.795a70.899 70.899 0 0 1-.328-1.223c-.07-.271-.142-.542-.209-.814a72.5 72.5 0 0 1-.289-1.224c-.063-.277-.127-.554-.188-.832-.088-.406-.168-.814-.249-1.223-.056-.283-.113-.566-.166-.851-.074-.406-.142-.815-.21-1.224-.048-.287-.098-.574-.142-.862-.063-.411-.118-.825-.174-1.239-.039-.286-.081-.572-.116-.859-.051-.422-.094-.845-.138-1.268-.029-.281-.063-.563-.088-.846-.04-.438-.07-.877-.103-1.315-.02-.271-.044-.539-.061-.81-.029-.48-.047-.964-.066-1.446-.01-.229-.024-.458-.031-.689a72.848 72.848 0 0 1-.033-2.145c0-.801.018-1.6.045-2.398.008-.255.022-.51.034-.764.024-.552.055-1.103.093-1.653.02-.286.04-.572.064-.857.044-.544.096-1.088.152-1.631.027-.26.052-.52.081-.778.09-.773.189-1.546.305-2.315.022-.143.048-.284.07-.426.1-.64.207-1.278.325-1.915.052-.283.109-.565.165-.846a69.726 69.726 0 0 1 .511-2.383c.13-.556.269-1.108.412-1.66.056-.216.108-.433.166-.647.205-.757.422-1.511.652-2.262 4.384-14.295 13.299-26.956 25.674-35.977zM309.98 374.4c-15.863-15.865-23.09-38.218-19.631-60.293a70.306 70.306 0 0 1 10.844-.842c8.751 0 17.253 1.588 25.322 4.724-.01.036-.017.073-.026.109-.112.443-.214.89-.318 1.335-.081.344-.167.686-.243 1.031-.096.431-.18.865-.268 1.299-.074.361-.152.723-.221 1.085-.078.412-.145.827-.216 1.241-.066.387-.138.772-.199 1.158-.062.398-.112.799-.169 1.199-.057.404-.119.807-.17 1.213-.051.399-.088.803-.133 1.203-.044.407-.094.813-.133 1.221-.04.436-.068.873-.102 1.31-.029.375-.064.749-.088 1.125-.033.541-.053 1.084-.076 1.627-.011.273-.029.547-.038.821a80.457 80.457 0 0 0-.038 2.459c0 1.211.037 2.416.092 3.618.012.232.02.465.033.697.063 1.161.151 2.318.266 3.47.02.211.046.421.068.632a79.13 79.13 0 0 0 .434 3.383l.031.224c.181 1.168.395 2.328.627 3.483a79.97 79.97 0 0 0 .922 4.051c.042.162.088.321.13.483.286 1.083.593 2.159.925 3.227.033.108.064.217.098.325a78.24 78.24 0 0 0 1.357 3.921c.41 1.096.841 2.184 1.299 3.259.044.104.092.205.136.308.448 1.039.92 2.066 1.412 3.083.061.127.12.255.182.381a77.912 77.912 0 0 0 1.91 3.636 77.577 77.577 0 0 0 1.794 3.065c.027.045.057.088.085.133.61.983 1.247 1.95 1.902 2.905.097.143.191.285.289.426a77.237 77.237 0 0 0 2.053 2.816l.371.479a78.251 78.251 0 0 0 4.635 5.448c.144.153.286.309.431.461a78.57 78.57 0 0 0 2.438 2.462c.059.056.112.115.171.172-14.405-2.314-27.678-9.063-38.188-19.573zm122.821-60.292c3.46 22.076-3.766 44.425-19.629 60.289-10.652 10.651-24.141 17.44-38.768 19.665.069-.066.133-.137.202-.203.83-.8 1.642-1.615 2.433-2.447.143-.151.283-.305.425-.457a79.38 79.38 0 0 0 2.282-2.541c.042-.049.086-.096.128-.146a78.736 78.736 0 0 0 2.224-2.742c.136-.175.273-.35.407-.526a80.17 80.17 0 0 0 2.043-2.795c.098-.142.192-.285.29-.427a77.643 77.643 0 0 0 1.845-2.811c.054-.087.111-.173.165-.26a77.584 77.584 0 0 0 1.775-3.024c.105-.189.211-.378.314-.568.56-1.019 1.1-2.049 1.612-3.092.06-.121.115-.244.175-.365a79.832 79.832 0 0 0 1.398-3.047c.055-.127.113-.254.168-.383a77.31 77.31 0 0 0 1.293-3.236l.228-.615a78.767 78.767 0 0 0 1.138-3.322c.031-.1.059-.2.09-.299a78.16 78.16 0 0 0 .93-3.236c.045-.171.093-.341.137-.512a78.33 78.33 0 0 0 .788-3.383c.047-.222.091-.444.136-.666a79.73 79.73 0 0 0 .63-3.493c.01-.065.018-.132.027-.197.172-1.13.314-2.268.438-3.409.022-.213.048-.424.069-.637a79.97 79.97 0 0 0 .267-3.477c.013-.23.022-.462.032-.692.056-1.206.093-2.414.093-3.628 0-.816-.013-1.631-.038-2.445-.012-.39-.036-.777-.054-1.166-.02-.424-.033-.848-.06-1.271-.034-.561-.083-1.12-.13-1.68-.021-.247-.034-.495-.058-.743a78.184 78.184 0 0 0-2.055-11.955c11.518-4.543 24.352-5.972 36.61-4.058zm-2.818-123.876h29.012c2.348 0 4.25-1.902 4.25-4.25s-1.902-4.25-4.25-4.25h-29.012c-2.348 0-4.25 1.902-4.25 4.25s1.902 4.25 4.25 4.25zM37.551 245.71a4.249 4.249 0 0 0 4.25-4.25V83.11a4.249 4.249 0 0 0-4.25-4.25 4.249 4.249 0 0 0-4.25 4.25v158.35a4.249 4.249 0 0 0 4.25 4.25z"/></g></svg>